<svg width="58" height="58" viewBox="0 0 58 58" fill="none" xmlns="http://www.w3.org/2000/svg">
<path d="M4.83337 16.9168H11.7572C13.5134 16.9168 15.1977 16.0476 16.4395 14.5003C18.2131 12.2905 20.8364 11.5189 23.2159 12.5071L26.5834 13.9057M4.83337 38.5866H8.75002C11.5521 38.5866 12.9532 38.5866 14.278 38.96C14.3424 38.9781 14.4066 38.9969 14.4706 39.0163C15.7871 39.4162 16.9529 40.1673 19.2843 41.67C23.8474 44.6109 26.129 46.0814 28.6151 45.9023C28.7323 45.8939 28.8492 45.8825 28.966 45.8687C31.4399 45.5729 33.3788 43.6986 37.2568 39.9496L41.0834 36.2502" stroke="#FEF5D0" stroke-width="1.5" stroke-linecap="round"/>
<path d="M53.1667 17.4819H47.0844C44.5087 17.4819 42.6902 16.0823 40.8424 14.2164C39.6457 13.0078 38.1183 12.2955 36.5129 12.1974C34.7178 12.0877 32.6378 11.9333 30.8947 12.4122C28.9543 12.9452 27.6733 14.405 26.318 15.9307L22.8208 19.8679C21.3931 21.4752 21.3931 24.0812 22.8208 25.6886C24.0531 27.0758 25.9838 27.2911 27.4338 26.2026C28.4773 25.4196 29.6629 24.1549 30.8925 23.7566C32.2763 23.3083 33.1347 24.3155 33.9189 25.3749L39.526 32.95C41.607 35.761 42.6474 37.1668 44.0699 37.9167C45.4923 38.6668 47.1175 38.6668 50.3682 38.6668H53.1667" stroke="#FEF5D0" stroke-width="1.5" stroke-linecap="round"/>
</svg>
