<svg width="58" height="58" viewBox="0 0 58 58" fill="none" xmlns="http://www.w3.org/2000/svg">
<path d="M21.6079 15.3428L25.991 21.5104C26.884 22.7669 27.3306 23.3951 27.5611 24.1183C27.7917 24.8415 27.7917 25.6134 27.7917 27.1576V48.3332H13.2917C8.73475 48.3332 6.45629 48.3332 5.04066 46.9102C3.625 45.4875 3.625 43.1975 3.625 38.6174V27.1576C3.625 25.6134 3.625 24.8415 3.85557 24.1183C4.08615 23.3951 4.53263 22.7669 5.42559 21.5104L9.80877 15.3428C12.4982 11.5586 13.8428 9.6665 15.7083 9.6665C17.5738 9.6665 18.9185 11.5586 21.6079 15.3428Z" stroke="#FEF5D0" stroke-width="1.5" stroke-linecap="round" stroke-linejoin="round"/>
<path d="M20.5417 48.3335V38.6668C20.5417 36.8599 20.5417 35.9565 20.1531 35.2835C19.8986 34.8427 19.5325 34.4766 19.0917 34.2221C18.4187 33.8335 17.5153 33.8335 15.7083 33.8335C13.9014 33.8335 12.9979 33.8335 12.325 34.2221C11.8842 34.4766 11.5181 34.8427 11.2635 35.2835C10.875 35.9565 10.875 36.8599 10.875 38.6668V48.3335" stroke="#FEF5D0" stroke-width="1.5" stroke-linecap="round" stroke-linejoin="round"/>
<path d="M20.5416 48.3332H44.7083C49.2652 48.3332 51.5436 48.3332 52.9593 46.9175C54.375 45.5018 54.375 43.2234 54.375 38.6665V27.6663C54.375 25.9343 54.375 25.0684 54.0862 24.2709C53.7976 23.4736 53.2433 22.8084 52.1345 21.4779L45.1902 13.1447C43.7648 11.4343 43.0522 10.5791 42.078 10.1228C41.1036 9.6665 39.9905 9.6665 37.764 9.6665H15.7083" stroke="#FEF5D0" stroke-width="1.5" stroke-linecap="round" stroke-linejoin="round"/>
<path d="M53.1667 24.1665H27.7917" stroke="#FEF5D0" stroke-width="1.5" stroke-linecap="round" stroke-linejoin="round"/>
</svg>
