<svg width="22" height="21" viewBox="0 0 22 21" fill="none" xmlns="http://www.w3.org/2000/svg">
<g clip-path="url(#clip0_19_1599)">
<path d="M6.23819 0.0736786C5.12099 0.126389 4.35806 0.304679 3.6911 0.566759C3.00083 0.835769 2.41577 1.19676 1.83365 1.78098C1.25153 2.3652 0.89306 2.95068 0.62594 3.642C0.36743 4.31043 0.19229 5.07399 0.14294 6.19182C0.0935901 7.30965 0.0826701 7.66896 0.0881301 10.5203C0.0935901 13.3717 0.10619 13.7291 0.16037 14.8493C0.21371 15.9663 0.39137 16.729 0.65345 17.3962C0.92288 18.0864 1.28345 18.6713 1.86788 19.2536C2.45231 19.8359 3.03737 20.1936 3.73037 20.4611C4.39817 20.7192 5.16194 20.8952 6.27956 20.9441C7.39718 20.993 7.75691 21.0044 10.6075 20.9989C13.458 20.9935 13.8169 20.9809 14.9368 20.9277C16.0567 20.8746 16.8155 20.6957 17.4829 20.4349C18.1731 20.1648 18.7584 19.8049 19.3403 19.2202C19.9222 18.6356 20.2805 18.0497 20.5474 17.3579C20.8061 16.6901 20.9819 15.9264 21.0304 14.8096C21.0793 13.6888 21.0909 13.331 21.0854 10.48C21.0799 7.62906 21.0671 7.27164 21.014 6.15192C20.9609 5.0322 20.783 4.27179 20.5211 3.6042C20.2513 2.91393 19.8911 2.3295 19.3069 1.74675C18.7227 1.164 18.1364 0.805949 17.4448 0.539669C16.7766 0.281159 16.0133 0.104969 14.8957 0.0566686C13.778 0.00836863 13.4183 -0.00402137 10.5667 0.00143863C7.71512 0.00689863 7.35812 0.0190786 6.23819 0.0736786ZM6.36083 19.0552C5.33708 19.0106 4.78121 18.8405 4.41077 18.6982C3.92021 18.5092 3.57077 18.2807 3.20159 17.9151C2.83241 17.5495 2.60561 17.1988 2.41409 16.7092C2.27024 16.3388 2.09699 15.7836 2.04911 14.7598C1.99703 13.6533 1.98611 13.3211 1.98002 10.5178C1.97393 7.71453 1.98464 7.38273 2.03315 6.27582C2.07683 5.25291 2.24798 4.69641 2.39015 4.32618C2.57915 3.83499 2.80679 3.48618 3.17324 3.11721C3.53969 2.74824 3.88934 2.52102 4.37927 2.3295C4.74929 2.18502 5.30453 2.01324 6.32786 1.96452C7.43519 1.91202 7.76699 1.90152 10.5699 1.89543C13.3727 1.88934 13.7054 1.89984 14.8131 1.94856C15.836 1.99308 16.3927 2.16255 16.7626 2.30556C17.2533 2.49456 17.6026 2.72157 17.9715 3.08865C18.3405 3.45573 18.5679 3.80412 18.7594 4.2951C18.9041 4.66407 19.0759 5.2191 19.1242 6.24306C19.1769 7.35039 19.1889 7.6824 19.1939 10.4851C19.199 13.2877 19.1891 13.6206 19.1406 14.7271C19.0959 15.7508 18.9262 16.3069 18.7836 16.6777C18.5946 17.1681 18.3667 17.5177 18.0001 17.8865C17.6334 18.2553 17.2842 18.4825 16.7941 18.674C16.4245 18.8183 15.8686 18.9905 14.8461 19.0392C13.7388 19.0913 13.407 19.1022 10.603 19.1083C7.79912 19.1144 7.46837 19.103 6.36104 19.0552M14.9206 4.88835C14.9211 5.13757 14.9954 5.38107 15.1342 5.58806C15.273 5.79504 15.4701 5.95621 15.7005 6.05118C15.9309 6.14615 16.1843 6.17065 16.4287 6.12159C16.673 6.07253 16.8973 5.95212 17.0732 5.77557C17.2491 5.59902 17.3687 5.37427 17.4169 5.12974C17.465 4.88522 17.4396 4.6319 17.3438 4.40184C17.248 4.17177 17.0861 3.97528 16.8786 3.83723C16.6711 3.69917 16.4273 3.62575 16.1781 3.62625C15.844 3.62692 15.5239 3.76025 15.2881 3.99693C15.0522 4.2336 14.9201 4.55425 14.9206 4.88835ZM5.19554 10.5107C5.20142 13.4885 7.61978 15.897 10.597 15.8913C13.5741 15.8856 15.9843 13.4675 15.9786 10.4897C15.973 7.51188 13.554 5.10276 10.5764 5.10864C7.59878 5.11452 5.18987 7.5333 5.19554 10.5107ZM7.0868 10.5069C7.08543 9.81465 7.28937 9.13755 7.67282 8.5612C8.05627 7.98486 8.60202 7.53517 9.24105 7.26899C9.88008 7.00281 10.5837 6.93211 11.2629 7.06581C11.9421 7.19952 12.5664 7.53163 13.0569 8.02016C13.5473 8.50868 13.8819 9.13167 14.0183 9.81035C14.1547 10.489 14.0868 11.1929 13.8232 11.833C13.5595 12.4731 13.112 13.0206 12.5372 13.4063C11.9623 13.7921 11.286 13.9987 10.5938 14C10.1341 14.001 9.67881 13.9114 9.25379 13.7364C8.82877 13.5613 8.44239 13.3043 8.11672 12.9799C7.79106 12.6555 7.53248 12.2702 7.35577 11.8459C7.17905 11.4215 7.08765 10.9666 7.0868 10.5069Z" fill="black"/>
</g>
<defs>
<clipPath id="clip0_19_1599">
<rect width="21" height="21" fill="white" transform="translate(0.0869141)"/>
</clipPath>
</defs>
</svg>
