<svg width="58" height="58" viewBox="0 0 58 58" fill="none" xmlns="http://www.w3.org/2000/svg">
<path d="M35.0417 18.1248C35.0417 11.4514 29.6317 6.0415 22.9583 6.0415C16.2849 6.0415 10.875 11.4514 10.875 18.1248C10.875 24.7982 16.2849 30.2082 22.9583 30.2082C29.6317 30.2082 35.0417 24.7982 35.0417 18.1248Z" stroke="#FEF5D0" stroke-width="1.5" stroke-linecap="round" stroke-linejoin="round"/>
<path d="M6.04163 47.1252C6.04163 37.7823 13.6155 30.2085 22.9583 30.2085C25.5528 30.2085 28.0108 30.7926 30.2083 31.8364" stroke="#FEF5D0" stroke-width="1.5" stroke-linecap="round" stroke-linejoin="round"/>
<path d="M51.9583 41.0833V35.0417C47.125 35.0417 43.5 32.625 43.5 32.625C43.5 32.625 39.875 35.0417 35.0416 35.0417V41.0833C35.0416 49.5417 43.5 51.9583 43.5 51.9583C43.5 51.9583 51.9583 49.5417 51.9583 41.0833Z" stroke="#FEF5D0" stroke-width="1.5" stroke-linecap="round" stroke-linejoin="round"/>
</svg>
