<svg width="21" height="23" viewBox="0 0 21 23" fill="none" xmlns="http://www.w3.org/2000/svg">
<g clip-path="url(#clip0_19_1596)">
<path d="M17.0996 4.61015C15.8639 3.80247 14.9729 2.50959 14.6944 1.00326C14.6346 0.677879 14.6013 0.342689 14.6013 0H10.6584L10.6521 15.8468C10.586 17.6214 9.1294 19.0458 7.34437 19.0458C6.78925 19.0458 6.26691 18.9068 5.80671 18.6639C4.75168 18.1072 4.02973 16.9983 4.02973 15.7222C4.02973 13.8893 5.51678 12.398 7.3438 12.398C7.68492 12.398 8.01225 12.4545 8.32173 12.5514V8.51474C8.00132 8.47089 7.67572 8.44378 7.3438 8.44378C3.3423 8.44378 0.0869141 11.7086 0.0869141 15.7222C0.0869141 18.1845 1.31336 20.3635 3.18525 21.6812C4.36396 22.5113 5.79808 23 7.34437 23C11.3459 23 14.6013 19.7352 14.6013 15.7222V7.68628C16.1475 8.79916 18.0424 9.45511 20.0869 9.45511V5.50092C18.9859 5.50092 17.9602 5.17265 17.0996 4.61015Z" fill="black"/>
</g>
<defs>
<clipPath id="clip0_19_1596">
<rect width="20" height="23" fill="white" transform="translate(0.0869141)"/>
</clipPath>
</defs>
</svg>
