<svg width="58" height="58" viewBox="0 0 58 58" fill="none" xmlns="http://www.w3.org/2000/svg">
<path d="M36.25 31.4166V33.8333C36.25 40.6686 36.25 44.0862 38.3735 46.2098C40.4971 48.3333 43.9147 48.3333 50.75 48.3333" stroke="#FEF5D0" stroke-width="1.5" stroke-linejoin="round"/>
<path d="M50.0044 43.5V53.1667" stroke="#FEF5D0" stroke-width="1.5" stroke-linecap="round" stroke-linejoin="round"/>
<path d="M21.7501 26.1706L20.4519 26.3148C18.5097 26.5306 17.5385 26.6387 16.7649 26.5548C12.9891 26.1457 10.0131 22.7997 9.68647 18.5969C9.61955 17.7358 9.72734 16.6572 9.94288 14.5" stroke="#FEF5D0" stroke-width="1.5" stroke-linejoin="round"/>
<path d="M33.0874 16.9166H33.1092" stroke="#FEF5D0" stroke-width="1.5" stroke-linecap="round" stroke-linejoin="round"/>
<path d="M41.0835 16.9166H51.9585" stroke="#FEF5D0" stroke-width="1.5" stroke-linecap="round" stroke-linejoin="round"/>
<path d="M5.42775 10.2084C4.89121 8.04106 4.62293 6.95738 5.03099 6.1507C5.16975 5.87633 5.35922 5.63129 5.58911 5.42879C6.2651 4.83337 7.37121 4.83337 9.58345 4.83337H40.0047C47.2738 4.83337 53.1666 10.7842 53.1666 18.125C53.1666 25.4659 47.2738 31.4167 40.0047 31.4167H28.5289C26.5574 31.4167 25.5714 31.4167 24.7246 31.0791C24.0715 30.8188 23.4831 30.4164 23.0012 29.9007C22.3763 29.232 22.0101 28.3077 21.2779 26.4589L19.9791 23.1799C19.228 21.2836 18.8524 20.3355 18.1578 19.634C17.4631 18.9325 16.5242 18.5533 14.6465 17.7948L10.5574 16.143C8.80106 15.4335 7.92291 15.0788 7.26379 14.4538C7.03273 14.2347 6.82379 13.993 6.64005 13.7322C6.11592 12.9882 5.88653 12.0616 5.42775 10.2084Z" stroke="#FEF5D0" stroke-width="1.5" stroke-linejoin="round"/>
</svg>
