<svg width="58" height="58" viewBox="0 0 58 58" fill="none" xmlns="http://www.w3.org/2000/svg">
<path d="M42.2915 45.9166V53.1666" stroke="#FEF5D0" stroke-width="1.5" stroke-linecap="round" stroke-linejoin="round"/>
<path d="M15.7085 45.9166V53.1666" stroke="#FEF5D0" stroke-width="1.5" stroke-linecap="round" stroke-linejoin="round"/>
<path d="M9.66675 24.1667C9.66675 15.0529 9.66675 10.496 12.498 7.66467C15.3294 4.83337 19.8863 4.83337 29.0001 4.83337C38.1138 4.83337 42.6709 4.83337 45.502 7.66467C48.3334 10.496 48.3334 15.0529 48.3334 24.1667V31.4167C48.3334 38.252 48.3334 41.6697 46.2099 43.7932C44.0864 45.9167 40.6687 45.9167 33.8334 45.9167H24.1667C17.3314 45.9167 13.9137 45.9167 11.7902 43.7932C9.66675 41.6697 9.66675 38.252 9.66675 31.4167V24.1667Z" stroke="#FEF5D0" stroke-width="1.5" stroke-linejoin="round"/>
<path d="M16.9165 38.6666H19.3332" stroke="#FEF5D0" stroke-width="1.5" stroke-linecap="round" stroke-linejoin="round"/>
<path d="M38.6665 38.6666H41.0832" stroke="#FEF5D0" stroke-width="1.5" stroke-linecap="round" stroke-linejoin="round"/>
<path d="M4.83325 19.3334V24.1667" stroke="#FEF5D0" stroke-width="1.5" stroke-linecap="round" stroke-linejoin="round"/>
<path d="M53.1665 19.3334V24.1667" stroke="#FEF5D0" stroke-width="1.5" stroke-linecap="round" stroke-linejoin="round"/>
<path d="M10.875 12.0834H47.125" stroke="#FEF5D0" stroke-width="1.5" stroke-linecap="round"/>
<path d="M10.875 31.4166H47.125" stroke="#FEF5D0" stroke-width="1.5" stroke-linecap="round"/>
<path d="M29 31.4167V12.0834" stroke="#FEF5D0" stroke-width="1.5" stroke-linecap="round" stroke-linejoin="round"/>
</svg>
