<svg width="58" height="58" viewBox="0 0 58 58" fill="none" xmlns="http://www.w3.org/2000/svg">
<path d="M6.0415 29C6.0415 18.1773 6.0415 12.766 9.40367 9.40379C12.7659 6.04163 18.1772 6.04163 28.9998 6.04163C39.8224 6.04163 45.2338 6.04163 48.5961 9.40379C51.9582 12.766 51.9582 18.1773 51.9582 29C51.9582 39.8225 51.9582 45.2339 48.5961 48.5962C45.2338 51.9583 39.8224 51.9583 28.9998 51.9583C18.1772 51.9583 12.7659 51.9583 9.40367 48.5962C6.0415 45.2339 6.0415 39.8225 6.0415 29Z" stroke="#FEF5D0" stroke-width="1.5"/>
<path d="M6.0415 16.9166H51.9582" stroke="#FEF5D0" stroke-width="1.5" stroke-linejoin="round"/>
<path d="M6.0415 41.0834H51.9582" stroke="#FEF5D0" stroke-width="1.5" stroke-linejoin="round"/>
<path d="M29 41.0833V16.9166" stroke="#FEF5D0" stroke-width="1.5" stroke-linecap="round" stroke-linejoin="round"/>
<path d="M19.3335 16.9167V7.25M38.6668 16.9167V7.25" stroke="#FEF5D0" stroke-width="1.5" stroke-linecap="round" stroke-linejoin="round"/>
<path d="M19.3335 50.75V41.0834M38.6668 50.75V41.0834" stroke="#FEF5D0" stroke-width="1.5" stroke-linecap="round" stroke-linejoin="round"/>
</svg>
