<svg width="58" height="58" viewBox="0 0 58 58" fill="none" xmlns="http://www.w3.org/2000/svg">
<path d="M10.2037 53.154V44.5756C10.2037 41.503 9.39905 39.9058 7.81746 37.2354C5.92154 34.0346 4.83331 30.2989 4.83331 26.3092C4.83331 14.4483 14.4509 4.83325 26.3148 4.83325C38.1787 4.83325 47.7963 14.4483 47.7963 26.3092C47.7963 27.7101 47.7963 28.4107 47.8548 28.8034C47.9945 29.7423 48.4326 30.55 48.8635 31.3859L53.1666 39.7316L49.7848 41.4221C48.8046 41.9119 48.3147 42.157 47.9732 42.6091C47.6318 43.061 47.5358 43.5715 47.3434 44.592L47.3246 44.6916C46.8843 47.0297 46.3983 49.6107 45.0295 51.239C44.5462 51.814 43.9478 52.2811 43.2726 52.6105C42.158 53.154 40.7878 53.154 38.0473 53.154C36.7792 53.154 35.5076 53.1833 34.2398 53.1526C31.2347 53.0793 29 50.5527 29 47.6189" stroke="#FEF5D0" stroke-width="1.5" stroke-linecap="round" stroke-linejoin="round"/>
<path d="M34.771 25.451C33.7407 25.451 32.8011 25.0612 32.0894 24.4198M34.771 25.451C34.771 28.2203 33.1665 30.8506 30.078 30.8506C26.9895 30.8506 25.3854 33.4807 25.3854 36.2499M34.771 25.451C39.9651 25.451 39.9651 17.352 34.771 17.352C34.299 17.352 33.8461 17.4338 33.4254 17.5842C33.6791 11.5472 24.976 9.90825 23.0048 15.5637M23.0048 15.5637C24.4404 16.5326 25.3854 18.1811 25.3854 20.0517M23.0048 15.5637C18.5296 12.5432 12.5638 17.9632 15.402 22.7958C10.6388 23.5099 11.148 30.8506 15.9995 30.8506C17.36 30.8506 18.5627 30.1705 19.2906 29.1299" stroke="#FEF5D0" stroke-width="1.5" stroke-linecap="round" stroke-linejoin="round"/>
</svg>
