<svg width="58" height="58" viewBox="0 0 58 58" fill="none" xmlns="http://www.w3.org/2000/svg">
<path d="M29.0109 29H29.0326M38.6667 29H38.6884M19.3551 29H19.3768" stroke="#FEF5D0" stroke-width="1.5" stroke-linecap="round" stroke-linejoin="round"/>
<path d="M51.9584 28.9998C51.9584 41.6794 41.6795 51.9582 29 51.9582C25.0654 51.9582 21.3619 50.9683 18.125 49.2242C13.6101 46.7913 10.572 49.0531 7.89266 49.4589C7.48623 49.5205 7.08143 49.3728 6.79078 49.0823C6.34959 48.6411 6.26562 47.9588 6.50931 47.3844C7.56092 44.9059 8.5265 40.2088 7.20993 36.2498C6.45204 33.9709 6.04169 31.5332 6.04169 28.9998C6.04169 16.3203 16.3205 6.0415 29 6.0415C41.6795 6.0415 51.9584 16.3203 51.9584 28.9998Z" stroke="#FEF5D0" stroke-width="1.5" stroke-linecap="round" stroke-linejoin="round"/>
</svg>
