<svg width="58" height="58" viewBox="0 0 58 58" fill="none" xmlns="http://www.w3.org/2000/svg">
<path d="M12.2309 48.4423C15.4072 50.75 19.9382 50.75 29 50.75C38.0618 50.75 42.5928 50.75 45.769 48.4423C46.7949 47.697 47.697 46.7949 48.4423 45.769C50.75 42.5928 50.75 38.0618 50.75 29C50.75 19.9382 50.75 15.4072 48.4423 12.2309C47.697 11.2051 46.7949 10.303 45.769 9.5577C42.5928 7.25 38.0618 7.25 29 7.25C19.9382 7.25 15.4072 7.25 12.2309 9.5577C11.2051 10.303 10.303 11.2051 9.5577 12.2309C7.25 15.4072 7.25 19.9382 7.25 29C7.25 38.0618 7.25 42.5928 9.5577 45.769C10.303 46.7949 11.2051 47.697 12.2309 48.4423Z" stroke="#FEF5D0" stroke-width="1.5" stroke-linecap="round" stroke-linejoin="round"/>
<path d="M41.0833 43.5005L43.5 41.0838M31.4167 43.5005L43.5 31.4172M21.75 43.5L43.5 21.75" stroke="#FEF5D0" stroke-width="1.5" stroke-linecap="round" stroke-linejoin="round"/>
</svg>
